<svg width="375" height="533" viewBox="0 0 375 533" fill="none" xmlns="http://www.w3.org/2000/svg">
<path opacity="0.1" fill-rule="evenodd" clip-rule="evenodd" d="M179 421C245.274 421 299 367.274 299 301C299 234.726 245.274 181 179 181C112.726 181 59 234.726 59 301C59 367.274 112.726 421 179 421Z" fill="white"/>
<path opacity="0.1" fill-rule="evenodd" clip-rule="evenodd" d="M179 511C294.98 511 389 416.98 389 301C389 185.02 294.98 91 179 91C63.0202 91 -31 185.02 -31 301C-31 416.98 63.0202 511 179 511Z" stroke="white" stroke-width="1.5"/>
<path opacity="0.1" fill-rule="evenodd" clip-rule="evenodd" d="M179 601C344.685 601 479 466.685 479 301C479 135.315 344.685 1 179 1C13.3146 1 -121 135.315 -121 301C-121 466.685 13.3146 601 179 601Z" stroke="white" stroke-width="1.5"/>
</svg>
